{"title":"Reboot: The Guardian Code (series 1 and 2)(avi)","magnet":"magnet:?xt=urn:btih:fc83cb91eb2da0974badd0b36749d169f27162c7&dn=Reboot%3A+The+Guardian+Code+%28series+1+and+2%29%28avi%29&tr=udp%3A%2F%2Ftracker.leechers-paradise.org%3A6969&tr=udp%3A%2F%2Fzer0day.ch%3A1337&tr=udp%3A%2F%2Fopen.demonii.com%3A1337&tr=udp%3A%2F%2Ftracker.coppersurfer.tk%3A6969&tr=udp%3A%2F%2Fexodus.desync.com%3A6969","uploader":"moronorless","categoryP":"video","categoryS":"tv_shows","size":"3792158106","seeders":"0","leechers":"0","description":"Reboot: The Guardian Code (series 1 and 2)\r\n <a href=\"\nhttps://www.thetvdb.com/series/reboot-the-guardian-code\" rel=\"nofollow\" target=\"_NEW\">\nhttps://www.thetvdb.com/series/reboot-the-guardian-code</a>\r\n\r\nReBoot: the Guardian Code is an adventure series about four teens (Austin, Parker, Trey, and Tamra) who discover that they&apos;re next-gen Guardians with a mission to save the world, by defending it in cyberspace. The Internet revolutionized the world, but it also left it vulnerable to attack. With the help of VERA, the last surviving cyberbeing from the original Guardian Program, our heroes stream into cyberspace where they use their awesome code-based powers to battle viruses that have been unleashed by a ruthless hacker. Known only as the Sourcerer, he seeks to rule the world by controlling cyberspace.\r\n\r\nIMDb: tt6849940\r\nTags: Science-Fiction, Action, Adventure, Comedy\r\n\r\ncompressed XviD-AFG files using &quot;Any Video Converter&quot; v 3.2.3\r\n\r\nVideo Information:\r\nGeneral\r\nFormat                                   : AVI\r\nFormat/Info                              : Audio Video Interleave\r\nFile size                                : 185 MiB\r\nDuration                                 : 23 min 20 s\r\nOverall bit rate mode                    : Variable\r\nOverall bit rate                         : 1 108 kb/s\r\nWriting application                      : MEncoder Sherpya-SVN-r32492-4.2.5\r\nWriting library                          : MPlayer\r\n\r\nVideo\r\nID                                       : 0\r\nFormat                                   : MPEG-4 Visual\r\nFormat profile                           : Simple@L3\r\nFormat settings, BVOP                    : No\r\nFormat settings, QPel                    : No\r\nFormat settings, GMC                     : No warppoints\r\nFormat settings, Matrix                  : Default (H.263)\r\nCodec ID                                 : XVID\r\nCodec ID/Hint                            : XviD\r\nDuration                                 : 23 min 20 s\r\nBit rate                                 : 975 kb/s\r\nWidth                                    : 640 pixels\r\nHeight                                   : 360 pixels\r\nDisplay aspect ratio                     : 16:9\r\nFrame rate                               : 24.000 FPS\r\nColor space                              : YUV\r\nChroma subsampling                       : 4:2:0\r\nBit depth                                : 8 bits\r\nScan type                                : Progressive\r\nCompression mode                         : Lossy\r\nBits/(Pixel*Frame)                       : 0.176\r\nStream size                              : 163 MiB (88%)\r\nWriting library                          : XviD 1.2.1 (UTC 2008-12-04)\r\n\r\nAudio\r\nID                                       : 1\r\nFormat                                   : MPEG Audio\r\nFormat version                           : Version 1\r\nFormat profile                           : Layer 3\r\nFormat settings                          : Joint stereo / MS Stereo\r\nCodec ID                                 : 55\r\nCodec ID/Hint                            : MP3\r\nDuration                                 : 23 min 20 s\r\nBit rate mode                            : Variable\r\nBit rate                                 : 120 kb/s\r\nChannel(s)                               : 2 channels\r\nSampling rate                            : 44.1 kHz\r\nCompression mode                         : Lossy\r\nStream size                              : 20.1 MiB (11%)\r\nAlignment                                : Aligned on interleaves\r\nInterleave, duration                     : 26  ms (0.63 video frame)\r\nInterleave, preload duration             : 138  ms\r\nWriting library                          : LAME3.98.4","last_updated":"2018-10-11T12:13:46.999Z","parsed":{"xt":"urn:btih:fc83cb91eb2da0974badd0b36749d169f27162c7","dn":"Reboot: The Guardian Code (series 1 and 2)(avi)","tr":["udp://exodus.desync.com:6969","udp://open.demonii.com:1337","udp://tracker.coppersurfer.tk:6969","udp://tracker.leechers-paradise.org:6969","udp://zer0day.ch:1337"],"infoHash":"fc83cb91eb2da0974badd0b36749d169f27162c7","infoHashBuffer":{"type":"Buffer","data":[252,131,203,145,235,45,160,151,75,173,208,179,103,73,209,105,242,113,98,199]},"name":"Reboot: The Guardian Code (series 1 and 2)(avi)","announce":["udp://exodus.desync.com:6969","udp://open.demonii.com:1337","udp://tracker.coppersurfer.tk:6969","udp://tracker.leechers-paradise.org:6969","udp://zer0day.ch:1337"],"urlList":[]}}